<svg id="visual" viewBox="0 0 900 600" width="900" height="600" xmlns="http://www.w3.org/2000/svg" xmlns:xlink="http://www.w3.org/1999/xlink" version="1.1"><path d="M0 49L13.7 55C27.3 61 54.7 73 82 79C109.3 85 136.7 85 163.8 76C191 67 218 49 245.2 49C272.3 49 299.7 67 327 72C354.3 77 381.7 69 409 69C436.3 69 463.7 77 491 82C518.3 87 545.7 89 573 96C600.3 103 627.7 115 654.8 116C682 117 709 107 736.2 95C763.3 83 790.7 69 818 68C845.3 67 872.7 79 886.3 85L900 91L900 0L886.3 0C872.7 0 845.3 0 818 0C790.7 0 763.3 0 736.2 0C709 0 682 0 654.8 0C627.7 0 600.3 0 573 0C545.7 0 518.3 0 491 0C463.7 0 436.3 0 409 0C381.7 0 354.3 0 327 0C299.7 0 272.3 0 245.2 0C218 0 191 0 163.8 0C136.7 0 109.3 0 82 0C54.7 0 27.3 0 13.7 0L0 0Z" fill="#6198ff"></path><path d="M0 103L13.7 109C27.3 115 54.7 127 82 130C109.3 133 136.7 127 163.8 112C191 97 218 73 245.2 75C272.3 77 299.7 105 327 111C354.3 117 381.7 101 409 97C436.3 93 463.7 101 491 108C518.3 115 545.7 121 573 130C600.3 139 627.7 151 654.8 149C682 147 709 131 736.2 121C763.3 111 790.7 107 818 111C845.3 115 872.7 127 886.3 133L900 139L900 89L886.3 83C872.7 77 845.3 65 818 66C790.7 67 763.3 81 736.2 93C709 105 682 115 654.8 114C627.7 113 600.3 101 573 94C545.7 87 518.3 85 491 80C463.7 75 436.3 67 409 67C381.7 67 354.3 75 327 70C299.7 65 272.3 47 245.2 47C218 47 191 65 163.8 74C136.7 83 109.3 83 82 77C54.7 71 27.3 59 13.7 53L0 47Z" fill="#4f8cff"></path><path d="M0 169L13.7 173C27.3 177 54.7 185 82 181C109.3 177 136.7 161 163.8 148C191 135 218 125 245.2 131C272.3 137 299.7 159 327 160C354.3 161 381.7 141 409 137C436.3 133 463.7 145 491 153C518.3 161 545.7 165 573 170C600.3 175 627.7 181 654.8 177C682 173 709 159 736.2 148C763.3 137 790.7 129 818 136C845.3 143 872.7 165 886.3 176L900 187L900 137L886.3 131C872.7 125 845.3 113 818 109C790.7 105 763.3 109 736.2 119C709 129 682 145 654.8 147C627.7 149 600.3 137 573 128C545.7 119 518.3 113 491 106C463.7 99 436.3 91 409 95C381.7 99 354.3 115 327 109C299.7 103 272.3 75 245.2 73C218 71 191 95 163.8 110C136.7 125 109.3 131 82 128C54.7 125 27.3 113 13.7 107L0 101Z" fill="#3c80ff"></path><path d="M0 199L13.7 205C27.3 211 54.7 223 82 217C109.3 211 136.7 187 163.8 174C191 161 218 159 245.2 168C272.3 177 299.7 197 327 199C354.3 201 381.7 185 409 179C436.3 173 463.7 177 491 183C518.3 189 545.7 197 573 205C600.3 213 627.7 221 654.8 218C682 215 709 201 736.2 191C763.3 181 790.7 175 818 180C845.3 185 872.7 201 886.3 209L900 217L900 185L886.3 174C872.7 163 845.3 141 818 134C790.7 127 763.3 135 736.2 146C709 157 682 171 654.8 175C627.7 179 600.3 173 573 168C545.7 163 518.3 159 491 151C463.7 143 436.3 131 409 135C381.7 139 354.3 159 327 158C299.7 157 272.3 135 245.2 129C218 123 191 133 163.8 146C136.7 159 109.3 175 82 179C54.7 183 27.3 175 13.7 171L0 167Z" fill="#2573ff"></path><path d="M0 355L13.7 348C27.3 341 54.7 327 82 309C109.3 291 136.7 269 163.8 274C191 279 218 311 245.2 333C272.3 355 299.7 367 327 369C354.3 371 381.7 363 409 347C436.3 331 463.7 307 491 295C518.3 283 545.7 283 573 289C600.3 295 627.7 307 654.8 329C682 351 709 383 736.2 377C763.3 371 790.7 327 818 318C845.3 309 872.7 335 886.3 348L900 361L900 215L886.3 207C872.7 199 845.3 183 818 178C790.7 173 763.3 179 736.2 189C709 199 682 213 654.8 216C627.7 219 600.3 211 573 203C545.7 195 518.3 187 491 181C463.7 175 436.3 171 409 177C381.7 183 354.3 199 327 197C299.7 195 272.3 175 245.2 166C218 157 191 159 163.8 172C136.7 185 109.3 209 82 215C54.7 221 27.3 209 13.7 203L0 197Z" fill="#0066ff"></path><path d="M0 379L13.7 379C27.3 379 54.7 379 82 361C109.3 343 136.7 307 163.8 312C191 317 218 363 245.2 390C272.3 417 299.7 425 327 429C354.3 433 381.7 433 409 412C436.3 391 463.7 349 491 335C518.3 321 545.7 335 573 341C600.3 347 627.7 345 654.8 362C682 379 709 415 736.2 417C763.3 419 790.7 387 818 380C845.3 373 872.7 391 886.3 400L900 409L900 359L886.3 346C872.7 333 845.3 307 818 316C790.7 325 763.3 369 736.2 375C709 381 682 349 654.8 327C627.7 305 600.3 293 573 287C545.7 281 518.3 281 491 293C463.7 305 436.3 329 409 345C381.7 361 354.3 369 327 367C299.7 365 272.3 353 245.2 331C218 309 191 277 163.8 272C136.7 267 109.3 289 82 307C54.7 325 27.3 339 13.7 346L0 353Z" fill="#005fee"></path><path d="M0 523L13.7 523C27.3 523 54.7 523 82 518C109.3 513 136.7 503 163.8 495C191 487 218 481 245.2 480C272.3 479 299.7 483 327 492C354.3 501 381.7 515 409 515C436.3 515 463.7 501 491 495C518.3 489 545.7 491 573 491C600.3 491 627.7 489 654.8 495C682 501 709 515 736.2 518C763.3 521 790.7 513 818 508C845.3 503 872.7 501 886.3 500L900 499L900 407L886.3 398C872.7 389 845.3 371 818 378C790.7 385 763.3 417 736.2 415C709 413 682 377 654.8 360C627.7 343 600.3 345 573 339C545.7 333 518.3 319 491 333C463.7 347 436.3 389 409 410C381.7 431 354.3 431 327 427C299.7 423 272.3 415 245.2 388C218 361 191 315 163.8 310C136.7 305 109.3 341 82 359C54.7 377 27.3 377 13.7 377L0 377Z" fill="#0059dd"></path><path d="M0 565L13.7 567C27.3 569 54.7 573 82 570C109.3 567 136.7 557 163.8 553C191 549 218 551 245.2 555C272.3 559 299.7 565 327 568C354.3 571 381.7 571 409 568C436.3 565 463.7 559 491 556C518.3 553 545.7 553 573 553C600.3 553 627.7 553 654.8 555C682 557 709 561 736.2 564C763.3 567 790.7 569 818 567C845.3 565 872.7 559 886.3 556L900 553L900 497L886.3 498C872.7 499 845.3 501 818 506C790.7 511 763.3 519 736.2 516C709 513 682 499 654.8 493C627.7 487 600.3 489 573 489C545.7 489 518.3 487 491 493C463.7 499 436.3 513 409 513C381.7 513 354.3 499 327 490C299.7 481 272.3 477 245.2 478C218 479 191 485 163.8 493C136.7 501 109.3 511 82 516C54.7 521 27.3 521 13.7 521L0 521Z" fill="#0052cc"></path><path d="M0 601L13.7 601C27.3 601 54.7 601 82 601C109.3 601 136.7 601 163.8 601C191 601 218 601 245.2 601C272.3 601 299.7 601 327 601C354.3 601 381.7 601 409 601C436.3 601 463.7 601 491 601C518.3 601 545.7 601 573 601C600.3 601 627.7 601 654.8 601C682 601 709 601 736.2 601C763.3 601 790.7 601 818 601C845.3 601 872.7 601 886.3 601L900 601L900 551L886.3 554C872.7 557 845.3 563 818 565C790.7 567 763.3 565 736.2 562C709 559 682 555 654.8 553C627.7 551 600.3 551 573 551C545.7 551 518.3 551 491 554C463.7 557 436.3 563 409 566C381.7 569 354.3 569 327 566C299.7 563 272.3 557 245.2 553C218 549 191 547 163.8 551C136.7 555 109.3 565 82 568C54.7 571 27.3 567 13.7 565L0 563Z" fill="#004cbb"></path></svg>