<svg id="visual" viewBox="0 0 900 600" width="900" height="600" xmlns="http://www.w3.org/2000/svg" xmlns:xlink="http://www.w3.org/1999/xlink" version="1.1"><g stroke-width="1" stroke-linejoin="bevel"><path d="M421 295L434 364L522 297Z" fill="#0068cb" stroke="#0068cb"></path><path d="M522 297L509 239L421 295Z" fill="#005e8f" stroke="#005e8f"></path><path d="M596 420L567 277L522 297Z" fill="#0065af" stroke="#0065af"></path><path d="M522 297L567 277L509 239Z" fill="#00629f" stroke="#00629f"></path><path d="M434 364L533 438L522 297Z" fill="#0065af" stroke="#0065af"></path><path d="M509 239L372 213L421 295Z" fill="#0065af" stroke="#0065af"></path><path d="M421 295L315 301L434 364Z" fill="#005a7f" stroke="#005a7f"></path><path d="M284 439L434 469L434 364Z" fill="#0068cb" stroke="#0068cb"></path><path d="M434 364L471 480L533 438Z" fill="#0068d9" stroke="#0068d9"></path><path d="M372 213L315 301L421 295Z" fill="#0068e6" stroke="#0068e6"></path><path d="M434 469L471 480L434 364Z" fill="#0068d9" stroke="#0068d9"></path><path d="M583 504L596 420L533 438Z" fill="#11556f" stroke="#11556f"></path><path d="M533 438L596 420L522 297Z" fill="#0068d9" stroke="#0068d9"></path><path d="M705 324L604 224L567 277Z" fill="#005e8f" stroke="#005e8f"></path><path d="M567 277L604 224L509 239Z" fill="#0065af" stroke="#0065af"></path><path d="M509 239L462 126L372 213Z" fill="#0068e6" stroke="#0068e6"></path><path d="M577 138L462 126L509 239Z" fill="#0068e6" stroke="#0068e6"></path><path d="M604 224L577 138L509 239Z" fill="#0067bd" stroke="#0067bd"></path><path d="M471 480L583 504L533 438Z" fill="#11556f" stroke="#11556f"></path><path d="M462 126L392 116L372 213Z" fill="#0065af" stroke="#0065af"></path><path d="M372 213L268 231L315 301Z" fill="#0065af" stroke="#0065af"></path><path d="M287 85L392 116L314 0Z" fill="#0068d9" stroke="#0068d9"></path><path d="M315 301L284 439L434 364Z" fill="#0066ff" stroke="#0066ff"></path><path d="M377 600L519 600L471 480Z" fill="#0068f3" stroke="#0068f3"></path><path d="M287 85L268 231L372 213Z" fill="#0067bd" stroke="#0067bd"></path><path d="M315 301L180 393L284 439Z" fill="#005e8f" stroke="#005e8f"></path><path d="M706 389L705 324L596 420Z" fill="#0067bd" stroke="#0067bd"></path><path d="M596 420L705 324L567 277Z" fill="#0068cb" stroke="#0068cb"></path><path d="M604 224L703 204L577 138Z" fill="#0065af" stroke="#0065af"></path><path d="M723 506L706 389L596 420Z" fill="#00629f" stroke="#00629f"></path><path d="M705 324L703 204L604 224Z" fill="#00629f" stroke="#00629f"></path><path d="M268 231L209 286L315 301Z" fill="#11556f" stroke="#11556f"></path><path d="M167 501L285 512L284 439Z" fill="#0066ff" stroke="#0066ff"></path><path d="M284 439L285 512L434 469Z" fill="#005a7f" stroke="#005a7f"></path><path d="M471 480L519 600L583 504Z" fill="#0065af" stroke="#0065af"></path><path d="M377 600L471 480L434 469Z" fill="#00629f" stroke="#00629f"></path><path d="M583 504L723 506L596 420Z" fill="#0066ff" stroke="#0066ff"></path><path d="M285 512L377 600L434 469Z" fill="#00629f" stroke="#00629f"></path><path d="M409 0L392 116L462 126Z" fill="#0067bd" stroke="#0067bd"></path><path d="M392 116L287 85L372 213Z" fill="#005a7f" stroke="#005a7f"></path><path d="M268 231L198 181L209 286Z" fill="#0068f3" stroke="#0068f3"></path><path d="M209 286L180 393L315 301Z" fill="#0068cb" stroke="#0068cb"></path><path d="M287 85L198 181L268 231Z" fill="#005a7f" stroke="#005a7f"></path><path d="M73 333L139 421L180 393Z" fill="#11556f" stroke="#11556f"></path><path d="M783 413L776 281L705 324Z" fill="#0068e6" stroke="#0068e6"></path><path d="M705 324L776 281L703 204Z" fill="#0065af" stroke="#0065af"></path><path d="M519 600L610 600L583 504Z" fill="#0068d9" stroke="#0068d9"></path><path d="M706 389L783 413L705 324Z" fill="#0066ff" stroke="#0066ff"></path><path d="M610 600L723 506L583 504Z" fill="#0068cb" stroke="#0068cb"></path><path d="M231 600L327 600L285 512Z" fill="#00629f" stroke="#00629f"></path><path d="M285 512L327 600L377 600Z" fill="#0068e6" stroke="#0068e6"></path><path d="M571 0L509 0L577 138Z" fill="#11556f" stroke="#11556f"></path><path d="M577 138L509 0L462 126Z" fill="#0068d9" stroke="#0068d9"></path><path d="M723 506L783 413L706 389Z" fill="#005a7f" stroke="#005a7f"></path><path d="M509 0L409 0L462 126Z" fill="#0065af" stroke="#0065af"></path><path d="M776 281L787 226L703 204Z" fill="#0066ff" stroke="#0066ff"></path><path d="M673 0L571 0L577 138Z" fill="#0066ff" stroke="#0066ff"></path><path d="M900 312L787 226L776 281Z" fill="#0067bd" stroke="#0067bd"></path><path d="M710 67L577 138L703 204Z" fill="#0068f3" stroke="#0068f3"></path><path d="M73 333L180 393L209 286Z" fill="#0066ff" stroke="#0066ff"></path><path d="M180 393L167 501L284 439Z" fill="#0068d9" stroke="#0068d9"></path><path d="M796 124L710 67L703 204Z" fill="#0067bd" stroke="#0067bd"></path><path d="M139 421L167 501L180 393Z" fill="#005a7f" stroke="#005a7f"></path><path d="M409 0L314 0L392 116Z" fill="#0067bd" stroke="#0067bd"></path><path d="M287 85L162 71L198 181Z" fill="#0068e6" stroke="#0068e6"></path><path d="M723 506L772 517L783 413Z" fill="#00629f" stroke="#00629f"></path><path d="M726 600L772 517L723 506Z" fill="#005a7f" stroke="#005a7f"></path><path d="M167 501L231 600L285 512Z" fill="#0068d9" stroke="#0068d9"></path><path d="M610 600L726 600L723 506Z" fill="#0067bd" stroke="#0067bd"></path><path d="M710 67L673 0L577 138Z" fill="#005e8f" stroke="#005e8f"></path><path d="M787 226L796 124L703 204Z" fill="#0065af" stroke="#0065af"></path><path d="M710 67L785 0L673 0Z" fill="#0068cb" stroke="#0068cb"></path><path d="M900 204L796 124L787 226Z" fill="#0068f3" stroke="#0068f3"></path><path d="M192 0L162 71L287 85Z" fill="#00629f" stroke="#00629f"></path><path d="M72 192L73 333L209 286Z" fill="#11556f" stroke="#11556f"></path><path d="M139 421L69 507L167 501Z" fill="#0066ff" stroke="#0066ff"></path><path d="M72 192L209 286L198 181Z" fill="#0068e6" stroke="#0068e6"></path><path d="M97 97L72 192L198 181Z" fill="#0066ff" stroke="#0066ff"></path><path d="M314 0L192 0L287 85Z" fill="#0068f3" stroke="#0068f3"></path><path d="M162 71L97 97L198 181Z" fill="#005e8f" stroke="#005e8f"></path><path d="M900 430L900 312L783 413Z" fill="#005e8f" stroke="#005e8f"></path><path d="M783 413L900 312L776 281Z" fill="#11556f" stroke="#11556f"></path><path d="M900 430L783 413L900 460Z" fill="#00629f" stroke="#00629f"></path><path d="M108 0L97 97L162 71Z" fill="#0065af" stroke="#0065af"></path><path d="M900 460L783 413L772 517Z" fill="#0068d9" stroke="#0068d9"></path><path d="M0 419L139 421L73 333Z" fill="#0065af" stroke="#0065af"></path><path d="M0 419L69 507L139 421Z" fill="#0068d9" stroke="#0068d9"></path><path d="M167 501L64 600L231 600Z" fill="#0068d9" stroke="#0068d9"></path><path d="M900 312L900 204L787 226Z" fill="#0068e6" stroke="#0068e6"></path><path d="M796 124L785 0L710 67Z" fill="#0068f3" stroke="#0068f3"></path><path d="M900 0L785 0L796 124Z" fill="#0067bd" stroke="#0067bd"></path><path d="M835 600L900 460L772 517Z" fill="#0067bd" stroke="#0067bd"></path><path d="M726 600L835 600L772 517Z" fill="#00629f" stroke="#00629f"></path><path d="M900 204L900 139L796 124Z" fill="#00629f" stroke="#00629f"></path><path d="M72 192L0 332L73 333Z" fill="#0068cb" stroke="#0068cb"></path><path d="M0 180L0 332L72 192Z" fill="#005a7f" stroke="#005a7f"></path><path d="M0 332L0 419L73 333Z" fill="#005a7f" stroke="#005a7f"></path><path d="M192 0L108 0L162 71Z" fill="#11556f" stroke="#11556f"></path><path d="M97 97L0 180L72 192Z" fill="#11556f" stroke="#11556f"></path><path d="M0 67L0 180L97 97Z" fill="#0065af" stroke="#0065af"></path><path d="M0 600L64 600L69 507Z" fill="#0068d9" stroke="#0068d9"></path><path d="M69 507L64 600L167 501Z" fill="#0068f3" stroke="#0068f3"></path><path d="M0 419L0 479L69 507Z" fill="#0067bd" stroke="#0067bd"></path><path d="M835 600L900 600L900 460Z" fill="#0068d9" stroke="#0068d9"></path><path d="M108 0L0 67L97 97Z" fill="#0066ff" stroke="#0066ff"></path><path d="M900 139L900 0L796 124Z" fill="#0066ff" stroke="#0066ff"></path><path d="M0 479L0 600L69 507Z" fill="#005a7f" stroke="#005a7f"></path><path d="M108 0L0 0L0 67Z" fill="#00629f" stroke="#00629f"></path></g></svg>