<svg id="visual" viewBox="0 0 900 600" width="900" height="600" xmlns="http://www.w3.org/2000/svg" xmlns:xlink="http://www.w3.org/1999/xlink" version="1.1"><path d="M0 187L82 133L164 181L245 169L327 169L409 175L491 169L573 139L655 247L736 139L818 157L900 169L900 0L818 0L736 0L655 0L573 0L491 0L409 0L327 0L245 0L164 0L82 0L0 0Z" fill="#0066ff"></path><path d="M0 319L82 193L164 283L245 229L327 319L409 283L491 319L573 289L655 391L736 259L818 205L900 295L900 167L818 155L736 137L655 245L573 137L491 167L409 173L327 167L245 167L164 179L82 131L0 185Z" fill="#0068e0"></path><path d="M0 391L82 289L164 385L245 313L327 355L409 355L491 415L573 343L655 427L736 307L818 259L900 331L900 293L818 203L736 257L655 389L573 287L491 317L409 281L327 317L245 227L164 281L82 191L0 317Z" fill="#0067bd"></path><path d="M0 481L82 355L164 463L245 433L327 487L409 457L491 481L573 469L655 487L736 361L818 379L900 457L900 329L818 257L736 305L655 425L573 341L491 413L409 353L327 353L245 311L164 383L82 287L0 389Z" fill="#006097"></path><path d="M0 601L82 601L164 601L245 601L327 601L409 601L491 601L573 601L655 601L736 601L818 601L900 601L900 455L818 377L736 359L655 485L573 467L491 479L409 455L327 485L245 431L164 461L82 353L0 479Z" fill="#11556f"></path></svg>