<svg id="visual" viewBox="0 0 900 600" width="900" height="600" xmlns="http://www.w3.org/2000/svg" xmlns:xlink="http://www.w3.org/1999/xlink" version="1.1"><rect x="0" y="0" width="900" height="600" fill="#0066FF"></rect><defs><linearGradient id="grad1_0" x1="33.3%" y1="0%" x2="100%" y2="100%"><stop offset="20%" stop-color="#0066ff" stop-opacity="1"></stop><stop offset="80%" stop-color="#0066ff" stop-opacity="1"></stop></linearGradient></defs><defs><linearGradient id="grad2_0" x1="0%" y1="0%" x2="66.7%" y2="100%"><stop offset="20%" stop-color="#0066ff" stop-opacity="1"></stop><stop offset="80%" stop-color="#0066ff" stop-opacity="1"></stop></linearGradient></defs><g transform="translate(900, 0)"><path d="M0 486.7C-62.9 480.2 -125.8 473.7 -186.3 449.7C-246.7 425.7 -304.7 384.1 -330.2 330.2C-355.8 276.3 -348.9 210.2 -369.6 153.1C-390.2 96 -438.5 48 -486.7 0L0 0Z" fill="#0066CC"></path></g><g transform="translate(0, 600)"><path d="M0 -486.7C69.2 -480.9 138.4 -475 181 -437C223.6 -399 239.5 -328.8 286.4 -286.4C333.3 -244 411.1 -229.4 449.7 -186.3C488.3 -143.2 487.5 -71.6 486.7 0L0 0Z" fill="#0066CC"></path></g></svg>